<svg width="440" height="288" viewBox="0 0 440 288" fill="none" xmlns="http://www.w3.org/2000/svg">
<g clip-path="url(#clip0)">
<path d="M376.952 288C342.132 288 313.904 285.848 313.904 283.193C313.904 280.538 342.132 278.386 376.952 278.386C411.772 278.386 440 280.538 440 283.193C440 285.848 411.772 288 376.952 288Z" fill="#E6E6E6"/>
<path d="M356.532 72.3486L381.685 65.4914C374.968 59.156 372.046 53.1878 372.919 47.5867H356.532V72.3486Z" fill="#9F616A"/>
<path d="M353.865 265.111L361.989 266.253L371.777 176.349L387.402 265.872L395.786 266.253V152.73H343.956L353.865 265.111Z" fill="#2F2E41"/>
<path d="M391.567 283.234C390.292 283.271 389.041 282.879 388.014 282.123C386.987 281.366 386.242 280.288 385.899 279.06L385.306 270.207L386.502 263.929C389.659 261.336 392.85 261.39 396.073 263.929L397.101 277.079C397.161 277.851 397.064 278.627 396.815 279.359C396.566 280.092 396.171 280.767 395.654 281.343C395.136 281.918 394.507 282.383 393.805 282.708C393.102 283.033 392.341 283.212 391.567 283.234Z" fill="#2F2E41"/>
<path d="M358.029 283.234C356.753 283.271 355.503 282.879 354.476 282.123C353.449 281.366 352.704 280.288 352.361 279.06L351.768 270.207L352.964 263.929C356.121 261.336 359.312 261.39 362.535 263.929L363.563 277.079C363.623 277.851 363.526 278.627 363.277 279.359C363.028 280.092 362.633 280.767 362.116 281.343C361.598 281.918 360.969 282.383 360.267 282.708C359.564 283.033 358.803 283.212 358.029 283.234Z" fill="#2F2E41"/>
<path d="M359.962 59.3962C351.964 59.3962 345.48 52.915 345.48 44.92C345.48 36.9251 351.964 30.4438 359.962 30.4438C367.961 30.4438 374.444 36.9251 374.444 44.92C374.444 52.915 367.961 59.3962 359.962 59.3962Z" fill="#9F616A"/>
<path d="M341.669 154.634H396.929C389.766 121.454 389.786 94.7314 395.492 73.1196C395.855 71.7437 395.697 70.2821 395.049 69.0152C394.401 67.7483 393.307 66.7653 391.978 66.2548L377.111 60.5391C372.648 66.3009 366.349 68.8175 356.532 65.1105L348.741 66.7079C346.844 67.0945 345.152 68.1552 343.977 69.6936C342.802 71.2319 342.225 73.1436 342.352 75.0747C342.926 83.527 342.7 92.044 343.193 99.3962C344.721 122.164 345.38 139.913 341.669 154.634Z" fill="#E6E6E6"/>
<path d="M367.583 25.8724C367.583 25.8724 359.199 16.3486 349.291 25.4914L346.623 26.2533L348.528 27.7771C348.528 27.7771 338.62 32.3486 339.382 41.8724C339.382 41.8724 340.906 41.4914 341.668 41.8724C342.431 42.2533 342.812 46.4438 342.812 46.4438C342.812 46.4438 343.955 43.3962 344.336 43.0152C344.717 42.6343 350.053 47.2057 358.818 40.3486C358.818 40.3486 361.486 47.2057 364.535 46.4438C367.583 45.6819 371.776 46.0629 373.681 51.0152C373.681 51.0152 383.971 28.92 367.583 25.8724Z" fill="#2F2E41"/>
<path d="M339.001 146.253L343.893 152.808C344.403 153.49 344.772 154.267 344.978 155.094C345.184 155.92 345.224 156.779 345.095 157.621C344.966 158.463 344.671 159.271 344.226 159.998C343.782 160.725 343.198 161.356 342.507 161.855C341.618 162.497 340.579 162.902 339.489 163.029C338.399 163.156 337.295 163.003 336.281 162.582C335.268 162.162 334.379 161.49 333.699 160.629C333.019 159.768 332.571 158.747 332.398 157.664L330.998 148.92L328.33 111.206L330.236 92.1581L342.431 96.7295L339.001 113.11V146.253Z" fill="#9F616A"/>
<path d="M343.956 101.301L329.093 94.4438L329.855 89.0464C329.855 84.5777 331.207 80.2135 333.733 76.5265C336.258 72.8396 339.84 70.0021 344.008 68.3866L348.529 66.6343L343.956 101.301Z" fill="#E6E6E6"/>
<path d="M398.072 144.729L393.18 151.284C392.671 151.967 392.302 152.744 392.096 153.57C391.889 154.396 391.85 155.256 391.979 156.098C392.108 156.939 392.403 157.747 392.847 158.474C393.291 159.201 393.876 159.832 394.566 160.331C395.456 160.974 396.495 161.378 397.584 161.505C398.674 161.633 399.779 161.479 400.792 161.059C401.806 160.638 402.695 159.966 403.375 159.105C404.055 158.244 404.503 157.223 404.676 156.14L406.075 147.396L408.743 109.682L406.838 90.6343L394.642 95.2057L398.072 111.587V144.729Z" fill="#9F616A"/>
<path d="M393.118 99.7771L407.981 92.92L407.219 87.5225C407.219 83.0539 405.868 78.6897 403.342 75.0027C400.816 71.3158 397.234 68.4783 393.066 66.8628L388.545 65.1105L393.118 99.7771Z" fill="#E6E6E6"/>
<path d="M4.00742 245.54H258.336C259.399 245.539 260.418 245.116 261.169 244.365C261.92 243.614 262.343 242.596 262.344 241.534V130.977C262.343 129.915 261.92 128.897 261.169 128.146C260.418 127.395 259.399 126.972 258.336 126.971H4.00742C2.94498 126.972 1.92636 127.395 1.17511 128.146C0.423859 128.897 0.00128174 129.915 0.00012207 130.977V241.534C0.00128174 242.596 0.423859 243.614 1.17511 244.365C1.92636 245.116 2.94498 245.539 4.00742 245.54ZM258.336 128.573C258.974 128.574 259.585 128.828 260.036 129.278C260.487 129.729 260.74 130.34 260.741 130.977V241.534C260.74 242.171 260.487 242.782 260.036 243.233C259.585 243.683 258.974 243.937 258.336 243.937H4.00742C3.36993 243.937 2.75879 243.683 2.30804 243.233C1.85727 242.782 1.60373 242.171 1.60303 241.534V130.977C1.60373 130.34 1.85727 129.729 2.30804 129.278C2.75879 128.828 3.36993 128.574 4.00742 128.573H258.336Z" fill="#E6E6E6"/>
<path d="M247.917 140.59C248.555 140.59 249.166 140.844 249.617 141.294C250.068 141.745 250.321 142.356 250.321 142.994C250.321 143.631 250.068 144.243 249.617 144.693C249.166 145.144 248.555 145.397 247.917 145.397H214.256C213.618 145.397 213.006 145.144 212.556 144.693C212.105 144.243 211.851 143.631 211.851 142.994C211.851 142.356 212.105 141.745 212.556 141.294C213.006 140.844 213.618 140.59 214.256 140.59H247.917Z" fill="#E6E6E6"/>
<path d="M17.4776 157.305V201.875H244.467V178.408C242.895 177.399 241.314 176.395 239.718 175.424C232.904 171.255 225.61 167.357 217.66 165.912C213.901 165.211 210.049 165.163 206.273 165.77C202.284 166.428 198.466 167.802 194.686 169.18C190.958 170.545 187.221 171.952 183.322 172.743C179.523 173.488 175.623 173.565 171.797 172.97C164.498 171.876 157.641 168.944 150.812 166.291C143.941 163.624 136.861 161.104 129.424 160.772C122.083 160.441 114.831 162.175 107.865 164.325C93.6614 168.707 79.1588 175.206 64.1196 170.748C48.8477 166.229 34.801 153.184 17.8765 157.054C17.7163 157.084 17.5736 157.173 17.4776 157.305Z" fill="#E6E6E6"/>
<path d="M17.477 158.082C17.5493 158.218 17.6654 158.325 17.8064 158.387C17.9474 158.449 18.1051 158.462 18.2541 158.423C20.2708 157.961 22.3365 157.748 24.4051 157.788C41.0526 158.082 53.8521 171.478 70.1299 173.482C84.806 175.286 98.6196 168.153 112.419 164.425C119.589 162.487 126.981 161.459 134.36 162.776C141.681 164.079 148.553 167.073 155.452 169.73C162.096 172.288 169 174.666 176.194 174.784C184.103 174.917 191.226 171.658 198.561 169.176C202.376 167.883 206.29 166.859 210.332 166.76C214.272 166.713 218.192 167.319 221.933 168.555C229.728 171.033 236.751 175.447 243.589 179.834C243.707 179.917 243.849 179.955 243.992 179.943C244.14 179.923 244.278 179.859 244.388 179.759C244.498 179.659 244.576 179.528 244.61 179.383C244.644 179.238 244.633 179.086 244.578 178.947C244.524 178.809 244.428 178.69 244.305 178.607L243.992 178.408C242.424 177.399 240.846 176.395 239.253 175.424C232.453 171.255 225.174 167.357 217.242 165.912C213.49 165.211 209.646 165.163 205.878 165.77C201.897 166.428 198.087 167.802 194.315 169.18C190.595 170.545 186.866 171.952 182.975 172.743C179.184 173.488 175.292 173.565 171.474 172.97C164.191 171.876 157.348 168.944 150.533 166.291C143.676 163.624 136.611 161.104 129.19 160.772C121.864 160.441 114.627 162.175 107.676 164.325C93.5017 168.707 79.0294 175.206 64.0216 170.748C48.7816 166.229 34.7641 153.184 17.875 157.054C17.7151 157.084 17.5726 157.173 17.477 157.305C17.4038 157.421 17.365 157.556 17.365 157.693C17.365 157.831 17.4038 157.966 17.477 158.082Z" fill="#333333"/>
<path d="M213.19 169.664C211.358 169.664 209.872 168.179 209.872 166.348C209.872 164.517 211.358 163.032 213.19 163.032C215.022 163.032 216.507 164.517 216.507 166.348C216.507 168.179 215.022 169.664 213.19 169.664Z" fill="#333333"/>
<path d="M129.313 165.4C127.481 165.4 125.996 163.916 125.996 162.085C125.996 160.253 127.481 158.769 129.313 158.769C131.145 158.769 132.63 160.253 132.63 162.085C132.63 163.916 131.145 165.4 129.313 165.4Z" fill="#333333"/>
<path d="M26.9548 161.137C25.1228 161.137 23.6376 159.653 23.6376 157.821C23.6376 155.99 25.1228 154.505 26.9548 154.505C28.7868 154.505 30.272 155.99 30.272 157.821C30.272 159.653 28.7868 161.137 26.9548 161.137Z" fill="#333333"/>
<path d="M215.058 220.704C215.695 220.704 216.307 220.958 216.758 221.408C217.209 221.859 217.462 222.47 217.462 223.108C217.462 223.745 217.209 224.357 216.758 224.807C216.307 225.258 215.695 225.511 215.058 225.511H181.396C180.759 225.511 180.147 225.258 179.696 224.807C179.245 224.357 178.992 223.745 178.992 223.108C178.992 222.47 179.245 221.859 179.696 221.408C180.147 220.958 180.759 220.704 181.396 220.704H215.058Z" fill="#E6E6E6"/>
<path d="M236.697 231.92C231.681 231.92 227.614 227.855 227.614 222.841C227.614 217.826 231.681 213.761 236.697 213.761C241.714 213.761 245.78 217.826 245.78 222.841C245.78 227.855 241.714 231.92 236.697 231.92Z" fill="#333333"/>
<path d="M133.843 220.704C134.48 220.704 135.092 220.958 135.543 221.408C135.994 221.859 136.247 222.47 136.247 223.108C136.247 223.745 135.994 224.357 135.543 224.807C135.092 225.258 134.48 225.511 133.843 225.511H100.181C99.5438 225.511 98.9322 225.258 98.4813 224.807C98.0304 224.357 97.7771 223.745 97.7771 223.108C97.7771 222.47 98.0304 221.859 98.4813 221.408C98.9322 220.958 99.5438 220.704 100.181 220.704H133.843Z" fill="#E6E6E6"/>
<path d="M155.484 231.92C150.468 231.92 146.401 227.855 146.401 222.841C146.401 217.826 150.468 213.761 155.484 213.761C160.501 213.761 164.567 217.826 164.567 222.841C164.567 227.855 160.501 231.92 155.484 231.92Z" fill="#333333"/>
<path d="M52.6298 220.704C53.2675 220.704 53.8791 220.958 54.33 221.408C54.7809 221.859 55.0342 222.47 55.0342 223.108C55.0342 223.745 54.7809 224.357 54.33 224.807C53.8791 225.258 53.2675 225.511 52.6298 225.511H18.9686C18.331 225.511 17.7194 225.258 17.2685 224.807C16.8176 224.357 16.5643 223.745 16.5643 223.108C16.5643 222.47 16.8176 221.859 17.2685 221.408C17.7194 220.958 18.331 220.704 18.9686 220.704H52.6298Z" fill="#E6E6E6"/>
<path d="M74.2679 231.92C69.2514 231.92 65.1847 227.855 65.1847 222.841C65.1847 217.826 69.2514 213.761 74.2679 213.761C79.2844 213.761 83.3511 217.826 83.3511 222.841C83.3511 227.855 79.2844 231.92 74.2679 231.92Z" fill="#333333"/>
<path d="M21.4163 97.1204H146.891C149.337 97.1204 151.32 95.7088 151.322 93.9693V66.7081C151.32 64.9686 149.337 63.557 146.891 63.557H21.4163C18.9702 63.557 16.988 64.9686 16.9853 66.7081V93.9688C16.9874 95.7083 18.9702 97.1183 21.4163 97.1204ZM146.891 64.8164C148.359 64.8164 149.548 65.6635 149.55 66.7071V93.9677C149.55 95.0113 148.359 95.8573 146.891 95.8584H21.4163C19.9485 95.8584 18.7592 95.0113 18.7576 93.9677V66.7081C18.7576 65.6645 19.9485 64.8185 21.4163 64.8175L146.891 64.8164Z" fill="#E6E6E6"/>
<path d="M118.52 79.0494C119.228 79.0503 119.907 79.3319 120.408 79.8325C120.909 80.3331 121.191 81.0119 121.191 81.7199V100.413C121.191 101.121 120.909 101.8 120.408 102.301C119.907 102.801 119.228 103.083 118.52 103.084H22.8793C22.1711 103.083 21.492 102.801 20.9912 102.301C20.4904 101.8 20.2087 101.121 20.2078 100.413V81.7199C20.2087 81.0119 20.4904 80.3331 20.9912 79.8325C21.492 79.3319 22.1711 79.0503 22.8793 79.0494H118.52Z" fill="#333333"/>
<path d="M105.163 97.2086C101.917 97.2086 99.2853 94.5783 99.2853 91.3336C99.2853 88.089 101.917 85.4586 105.163 85.4586C108.409 85.4586 111.04 88.089 111.04 91.3336C111.04 94.5783 108.409 97.2086 105.163 97.2086Z" fill="white"/>
<path d="M78.3754 88.7836C79.0131 88.7836 79.6246 89.0368 80.0755 89.4875C80.5264 89.9382 80.7798 90.5496 80.7798 91.187C80.7798 91.8244 80.5264 92.4357 80.0755 92.8864C79.6246 93.3372 79.0131 93.5904 78.3754 93.5904H44.7142C44.0765 93.5904 43.465 93.3372 43.0141 92.8864C42.5631 92.4357 42.3098 91.8244 42.3098 91.187C42.3098 90.5496 42.5631 89.9382 43.0141 89.4875C43.465 89.0368 44.0765 88.7836 44.7142 88.7836H78.3754Z" fill="white"/>
<path d="M115.452 33.5634H240.927C243.373 33.5634 245.356 32.1518 245.358 30.4123V3.15115C245.356 1.41161 243.373 0 240.927 0H115.452C113.006 0 111.024 1.41161 111.021 3.15115V30.4118C111.023 32.1513 113.006 33.5613 115.452 33.5634ZM240.927 1.25939C242.395 1.25939 243.585 2.10646 243.586 3.15007V30.4107C243.586 31.4543 242.395 32.3003 240.927 32.3014H115.452C113.985 32.3014 112.795 31.4543 112.794 30.4107V3.15115C112.794 2.10753 113.985 1.26153 115.452 1.26046L240.927 1.25939Z" fill="#E6E6E6"/>
<path d="M212.558 15.4924C213.266 15.4933 213.945 15.7749 214.446 16.2755C214.947 16.7761 215.229 17.4549 215.229 18.1629V36.8561C215.229 37.5641 214.947 38.2429 214.446 38.7435C213.945 39.2441 213.266 39.5258 212.558 39.5266H116.917C116.209 39.5258 115.53 39.2441 115.029 38.7435C114.528 38.2429 114.247 37.5641 114.246 36.8561V18.1629C114.247 17.4549 114.528 16.7761 115.029 16.2755C115.53 15.7749 116.209 15.4933 116.917 15.4924H212.558Z" fill="#333333"/>
<path d="M199.2 33.6516C195.954 33.6516 193.322 31.0213 193.322 27.7766C193.322 24.5319 195.954 21.9016 199.2 21.9016C202.446 21.9016 205.077 24.5319 205.077 27.7766C205.077 31.0213 202.446 33.6516 199.2 33.6516Z" fill="white"/>
<path d="M172.414 25.2266C173.052 25.2266 173.663 25.4798 174.114 25.9305C174.565 26.3812 174.818 26.9926 174.818 27.63C174.818 28.2674 174.565 28.8787 174.114 29.3294C173.663 29.7802 173.052 30.0334 172.414 30.0334H138.753C138.115 30.0334 137.504 29.7802 137.053 29.3294C136.602 28.8787 136.348 28.2674 136.348 27.63C136.348 26.9926 136.602 26.3812 137.053 25.9305C137.504 25.4798 138.115 25.2266 138.753 25.2266H172.414Z" fill="white"/>
</g>
<defs>
<clipPath id="clip0">
<rect width="440" height="288" fill="white" transform="matrix(-1 0 0 1 440 0)"/>
</clipPath>
</defs>
</svg>
