<svg width="405" height="327" viewBox="0 0 405 327" fill="none" xmlns="http://www.w3.org/2000/svg">
<g clip-path="url(#clip0)">
<path d="M388.956 0.000410833H267.384C261.517 0.000123508 255.825 1.99595 251.243 5.65979C246.661 9.32363 243.462 14.4374 242.172 20.1606L180.745 292.635C180.075 295.607 180.063 298.69 180.71 301.667C181.357 304.644 182.648 307.443 184.492 309.869C186.335 312.294 188.687 314.287 191.382 315.707C194.077 317.128 197.05 317.942 200.093 318.092L325.07 324.249C331.763 324.579 338.346 322.462 343.592 318.295C348.839 314.127 352.389 308.193 353.582 301.599L388.43 108.957L391.022 109.698L397.691 73.1849L395.023 72.5179L404.75 18.7443C405.167 16.441 405.07 14.0741 404.467 11.8124C403.864 9.55063 402.77 7.44974 401.262 5.65949C399.754 3.86923 397.87 2.43371 395.743 1.45527C393.617 0.47682 391.301 -0.0204545 388.961 -0.00110414L388.956 0.000410833Z" fill="#3F3D56"/>
<path d="M283.387 5.87421H269.198C265.122 5.87425 261.169 7.26807 257.995 9.82431C254.821 12.3805 252.617 15.9454 251.748 19.9272L192.785 290.179C192.445 291.735 192.445 293.346 192.786 294.901C193.126 296.457 193.798 297.922 194.755 299.194C195.713 300.466 196.935 301.517 198.336 302.274C199.737 303.031 201.285 303.477 202.874 303.58L327.445 311.745C330.96 311.976 334.436 310.904 337.211 308.735C339.985 306.566 341.864 303.451 342.488 299.984L392.802 20.6533C393.127 18.8454 393.052 16.988 392.582 15.2123C392.111 13.4366 391.257 11.7857 390.078 10.3763C388.9 8.96693 387.427 7.83327 385.763 7.05536C384.099 6.27745 382.284 5.87425 380.447 5.87421H366.986C365.683 5.87417 364.416 6.30368 363.382 7.09624C362.348 7.88881 361.604 9.00022 361.265 10.2584C360.966 11.3696 360.308 12.3511 359.395 13.0509C358.482 13.7507 357.363 14.1297 356.212 14.1293H292.303C290.051 14.1292 287.881 13.279 286.228 11.7486C284.575 10.2181 283.561 8.12025 283.387 5.87421Z" fill="white"/>
<path d="M352.251 194.803C352.493 194.811 352.73 194.732 352.919 194.58C353.108 194.428 353.236 194.213 353.279 193.975L380.827 41.9315C380.854 41.787 380.848 41.6385 380.812 41.4962C380.776 41.3539 380.709 41.2211 380.617 41.1069C380.525 40.9936 380.41 40.9019 380.279 40.8382C380.148 40.7745 380.004 40.7405 379.859 40.7386L254.526 39.2581H254.514C254.286 39.26 254.066 39.3392 253.89 39.4826C253.713 39.6259 253.59 39.8251 253.541 40.0474L221.066 187.156C221.034 187.3 221.033 187.448 221.065 187.592C221.096 187.736 221.157 187.871 221.245 187.989C221.333 188.105 221.445 188.201 221.573 188.27C221.702 188.339 221.844 188.378 221.99 188.385L352.251 194.803Z" fill="#E6E6E6"/>
<path d="M243.486 204.633C243.372 204.633 243.262 204.672 243.172 204.743C243.083 204.814 243.02 204.913 242.995 205.024L241.821 210.054C241.804 210.125 241.803 210.199 241.818 210.271C241.833 210.342 241.862 210.41 241.906 210.469C241.949 210.527 242.004 210.576 242.068 210.611C242.132 210.647 242.203 210.668 242.276 210.673L308.58 215.386C308.703 215.394 308.825 215.357 308.923 215.282C309.021 215.207 309.088 215.099 309.112 214.978L310.241 209.158C310.255 209.087 310.253 209.015 310.236 208.945C310.22 208.875 310.188 208.809 310.144 208.752C310.1 208.695 310.044 208.649 309.981 208.615C309.917 208.582 309.847 208.562 309.775 208.558L243.517 204.634L243.486 204.633Z" fill="#E6E6E6"/>
<path d="M324.043 234.071C324.162 234.081 324.281 234.047 324.379 233.977C324.476 233.907 324.545 233.805 324.574 233.688L326.011 227.856C326.028 227.784 326.03 227.71 326.016 227.638C326.002 227.565 325.972 227.497 325.929 227.438C325.885 227.378 325.83 227.329 325.765 227.293C325.701 227.257 325.629 227.236 325.556 227.231L240.881 221.309C240.766 221.299 240.651 221.33 240.557 221.396C240.462 221.462 240.393 221.558 240.361 221.669L238.868 226.709C238.847 226.781 238.842 226.857 238.853 226.931C238.865 227.005 238.893 227.076 238.936 227.138C238.978 227.2 239.034 227.251 239.099 227.289C239.164 227.327 239.237 227.35 239.311 227.356L324.043 234.071Z" fill="#E6E6E6"/>
<path d="M319.495 252.766C319.615 252.776 319.734 252.742 319.831 252.672C319.929 252.602 319.998 252.499 320.026 252.383L321.463 246.551C321.481 246.479 321.483 246.405 321.469 246.332C321.454 246.26 321.425 246.192 321.381 246.132C321.338 246.073 321.282 246.024 321.218 245.988C321.154 245.952 321.082 245.931 321.009 245.926L236.333 240.003C236.219 239.994 236.104 240.025 236.009 240.091C235.914 240.156 235.845 240.253 235.814 240.364L234.321 245.404C234.299 245.476 234.294 245.552 234.306 245.626C234.318 245.7 234.346 245.771 234.388 245.833C234.431 245.895 234.487 245.946 234.552 245.984C234.617 246.022 234.689 246.044 234.764 246.05L319.495 252.766Z" fill="#E6E6E6"/>
<path d="M172.685 318.581C172.685 322.81 133.98 323.26 86.3426 326.237C38.7475 329.212 0 322.81 0 318.581C0 314.352 38.9284 305.845 86.3426 310.925C133.98 316.029 172.685 314.352 172.685 318.581Z" fill="#E6E6E6"/>
<path d="M280.497 284.725C280.618 284.738 280.739 284.706 280.838 284.636C280.937 284.566 281.007 284.462 281.035 284.344L284.073 272.192C284.091 272.121 284.093 272.047 284.079 271.975C284.066 271.903 284.037 271.835 283.994 271.775C283.951 271.716 283.896 271.666 283.833 271.63C283.769 271.594 283.698 271.572 283.625 271.566L231.626 267.192C231.505 267.184 231.385 267.219 231.287 267.291C231.188 267.363 231.119 267.467 231.091 267.586L228.499 279.249C228.484 279.319 228.483 279.391 228.498 279.461C228.512 279.532 228.542 279.598 228.584 279.656C228.626 279.714 228.68 279.762 228.743 279.798C228.805 279.833 228.874 279.855 228.946 279.862L280.497 284.725Z" fill="#A7A7A7"/>
<path d="M70.5383 235.206C71.1931 234.757 71.7415 234.17 72.1448 233.486C72.5482 232.803 72.7968 232.039 72.873 231.249C72.9492 230.459 72.8512 229.662 72.5859 228.914C72.3207 228.166 71.8945 227.485 71.3376 226.919L73.443 179.92L62.724 181.123L63.347 227.095C62.4581 228.093 61.9663 229.382 61.9648 230.719C61.9634 232.055 62.4525 233.346 63.3393 234.346C64.2261 235.345 65.4489 235.985 66.776 236.143C68.103 236.301 69.4419 235.967 70.5388 235.204L70.5383 235.206Z" fill="#A0616A"/>
<path d="M90.0933 314.764L96.1942 315.837L102.224 292.815L94.2303 291.232L90.0933 314.764Z" fill="#A0616A"/>
<path d="M106.966 323.57L87.792 320.199L89.0943 312.791L100.86 314.86C102.825 315.205 104.572 316.317 105.717 317.951C106.862 319.584 107.311 321.606 106.966 323.571L106.966 323.57Z" fill="#2F2E41"/>
<path d="M73.3477 317.818H79.5421L82.4888 293.925H73.3467L73.3477 317.818Z" fill="#A0616A"/>
<path d="M91.4863 323.571L72.0183 323.572L72.0179 316.05L83.9642 316.05C85.9591 316.049 87.8723 316.842 89.283 318.252C90.6936 319.663 91.4862 321.576 91.4863 323.571Z" fill="#2F2E41"/>
<path d="M99.191 309.254C99.0944 309.254 98.9979 309.248 98.902 309.237L91.6112 308.637C91.2792 308.598 90.9587 308.492 90.669 308.325C90.3793 308.158 90.1266 307.934 89.9261 307.667C89.7256 307.4 89.5815 307.094 89.5027 306.769C89.4238 306.445 89.4118 306.107 89.4674 305.778L96.7052 270.065L92.1579 246.078C92.1208 245.883 92.0145 245.708 91.8586 245.585C91.7026 245.463 91.5076 245.4 91.3095 245.41C91.1113 245.42 90.9234 245.501 90.7804 245.639C90.6374 245.776 90.549 245.961 90.5314 246.159L83.8312 307.107C83.7687 307.75 83.4593 308.342 82.9681 308.76C82.477 309.179 81.8427 309.39 81.1989 309.349L74.3299 309.094C73.728 309.051 73.1626 308.789 72.7404 308.358C72.3181 307.927 72.0683 307.356 72.0381 306.754L72.5868 233.102L108.198 228.651L110.686 267.072L110.675 267.113L101.585 307.37C101.455 307.906 101.148 308.384 100.714 308.725C100.279 309.067 99.7434 309.253 99.191 309.254Z" fill="#2F2E41"/>
<path d="M84.3305 149.466C91.1841 149.466 96.74 143.91 96.74 137.056C96.74 130.202 91.1841 124.646 84.3305 124.646C77.4769 124.646 71.9209 130.202 71.9209 137.056C71.9209 143.91 77.4769 149.466 84.3305 149.466Z" fill="#A0616A"/>
<path d="M96.0231 238.707C94.0822 238.719 92.1786 238.174 90.5375 237.138C84.525 233.381 77.6985 234.874 74.1637 236.098C73.8129 236.221 73.4389 236.263 73.0695 236.221C72.7002 236.179 72.3452 236.054 72.031 235.855C71.7205 235.66 71.4581 235.398 71.2635 235.087C71.0689 234.776 70.9472 234.425 70.9074 234.061L64.48 176.65C63.4028 167.03 69.1971 157.987 78.2573 155.146C78.5978 155.039 78.9439 154.938 79.2956 154.842C82.1151 154.078 85.0678 153.941 87.946 154.44C90.8242 154.94 93.5579 156.064 95.9549 157.734C98.3965 159.422 100.439 161.625 101.937 164.187C103.436 166.75 104.354 169.609 104.629 172.565L110.04 230.361C110.077 230.735 110.027 231.113 109.893 231.464C109.759 231.816 109.545 232.131 109.269 232.386C107.371 234.14 101.865 238.707 96.0231 238.707Z" fill="#A7A7A7"/>
<path d="M76.4492 188.961L61.9484 187.366C61.5357 187.321 61.1377 187.187 60.7814 186.974C60.4252 186.761 60.119 186.474 59.8838 186.132C59.6486 185.79 59.4899 185.401 59.4185 184.992C59.3471 184.583 59.3647 184.163 59.4701 183.762L63.1615 169.692C63.2702 168.638 63.5869 167.615 64.0932 166.684C64.5994 165.752 65.2853 164.93 66.1111 164.265C66.9369 163.601 67.8862 163.106 68.9043 162.81C69.9223 162.515 70.9889 162.424 72.0423 162.543C73.0957 162.662 74.1151 162.988 75.0416 163.503C75.9681 164.019 76.7833 164.712 77.44 165.545C78.0968 166.377 78.5821 167.331 78.8679 168.352C79.1538 169.373 79.2345 170.44 79.1053 171.492L79.6535 185.981C79.6692 186.396 79.5953 186.809 79.4368 187.193C79.2783 187.577 79.039 187.922 78.735 188.205C78.4311 188.488 78.0698 188.702 77.6757 188.832C77.2816 188.963 76.864 189.007 76.4512 188.962L76.4492 188.961Z" fill="#A7A7A7"/>
<path d="M109.981 233.193C110.577 232.669 111.05 232.02 111.368 231.293C111.686 230.566 111.841 229.778 111.821 228.985C111.802 228.192 111.608 227.412 111.255 226.702C110.902 225.991 110.397 225.367 109.776 224.872L106.202 177.962L95.6987 180.327L101.863 226.01C101.101 227.108 100.768 228.447 100.927 229.774C101.087 231.101 101.728 232.323 102.729 233.209C103.73 234.095 105.021 234.582 106.357 234.579C107.693 234.576 108.982 234.083 109.979 233.193H109.981Z" fill="#A0616A"/>
<path d="M91.6726 186.012C91.3686 185.73 91.1291 185.385 90.9706 185.001C90.8121 184.617 90.7382 184.204 90.754 183.789L91.3022 169.3C91.184 168.254 91.2732 167.194 91.5646 166.181C91.856 165.169 92.344 164.224 93.0007 163.4C93.6574 162.576 94.4699 161.889 95.3918 161.38C96.3138 160.87 97.3272 160.546 98.374 160.428C99.4209 160.31 100.481 160.399 101.493 160.691C102.506 160.982 103.451 161.47 104.275 162.127C105.099 162.783 105.785 163.596 106.295 164.518C106.805 165.44 107.128 166.453 107.246 167.5L110.937 181.57C111.043 181.971 111.06 182.391 110.989 182.8C110.918 183.209 110.759 183.598 110.524 183.94C110.289 184.282 109.982 184.569 109.626 184.782C109.27 184.995 108.872 185.129 108.459 185.174L93.9584 186.769C93.5456 186.815 93.1279 186.77 92.7337 186.64C92.3396 186.509 91.9783 186.294 91.6746 186.011L91.6726 186.012Z" fill="#A7A7A7"/>
<path d="M83.5926 149.933C83.3714 149.933 83.151 149.908 82.9358 149.857L82.8726 149.842C71.9621 148.175 69.5505 141.853 69.0215 139.214C68.4738 136.481 69.0973 133.844 70.507 132.819C69.7385 130.394 69.8618 128.241 70.8743 126.421C72.6427 123.248 76.473 122.177 76.9879 122.044C80.0487 119.786 83.7108 121.293 84.3773 121.599C90.2983 119.408 92.5624 121.231 92.9706 121.638C95.6172 122.114 97.2304 123.136 97.766 124.678C98.772 127.574 95.5909 131.176 95.455 131.328L95.3842 131.407L90.645 131.633C90.1952 131.654 89.7551 131.77 89.353 131.972C88.9509 132.175 88.5958 132.46 88.3109 132.808C88.026 133.157 87.8175 133.562 87.699 133.996C87.5805 134.43 87.5546 134.885 87.623 135.33C87.7512 135.904 87.9132 136.47 88.1081 137.025C88.9165 139.554 89.5228 141.715 88.7417 142.537C88.5644 142.696 88.3461 142.802 88.1115 142.842C87.877 142.883 87.6357 142.857 87.4154 142.767C86.6742 142.569 86.1714 142.61 85.9208 142.891C85.5318 143.325 85.6505 144.424 86.2553 145.985C86.445 146.479 86.4961 147.015 86.403 147.536C86.3098 148.057 86.076 148.542 85.7268 148.94C85.4638 149.25 85.1368 149.499 84.7682 149.671C84.3996 149.842 83.9982 149.932 83.5916 149.933H83.5926Z" fill="#2F2E41"/>
</g>
<defs>
<clipPath id="clip0">
<rect width="405" height="327" fill="white"/>
</clipPath>
</defs>
</svg>
