<svg width="442" height="327" viewBox="0 0 442 327" fill="none" xmlns="http://www.w3.org/2000/svg">
<g clip-path="url(#clip0)">
<path d="M176.587 67.8123H174.977V24.8598C174.977 21.5951 174.317 18.3625 173.034 15.3464C171.751 12.3302 169.871 9.58971 167.501 7.28127C165.13 4.97282 162.317 3.14167 159.22 1.89234C156.123 0.643023 152.804 2.76605e-06 149.452 0H56.0146C49.2449 -1.25689e-05 42.7524 2.61912 37.9655 7.28121C33.1785 11.9433 30.4893 18.2665 30.4893 24.8597V260.501C30.4893 263.765 31.1495 266.998 32.4322 270.014C33.715 273.03 35.5952 275.771 37.9654 278.079C40.3357 280.387 43.1496 282.219 46.2464 283.468C49.3433 284.717 52.6625 285.36 56.0145 285.36H149.451C156.221 285.36 162.714 282.741 167.501 278.079C172.288 273.417 174.977 267.094 174.977 260.501V98.3866H176.587V67.8123Z" fill="#1E1E1E"/>
<path d="M150.481 6.46777H138.285C138.845 7.80704 139.06 9.2601 138.908 10.6989C138.756 12.1378 138.244 13.5183 137.416 14.7187C136.587 15.9192 135.468 16.9029 134.158 17.583C132.847 18.2632 131.385 18.619 129.9 18.6191H76.3708C74.8857 18.619 73.4234 18.2632 72.1128 17.583C70.8021 16.9029 69.6833 15.9192 68.8549 14.7187C68.0265 13.5183 67.514 12.1378 67.3624 10.699C67.2109 9.26011 67.425 7.80704 67.9859 6.46777H56.5942C54.091 6.46777 51.6122 6.94797 49.2995 7.88095C46.9868 8.81392 44.8854 10.1814 43.1154 11.9053C41.3453 13.6292 39.9412 15.6758 38.9832 17.9282C38.0253 20.1806 37.5322 22.5948 37.5322 25.0327V260.328C37.5322 262.766 38.0253 265.18 38.9832 267.432C39.9412 269.685 41.3453 271.731 43.1153 273.455C44.8854 275.179 46.9868 276.547 49.2995 277.48C51.6122 278.413 54.091 278.893 56.5942 278.893H150.481C152.984 278.893 155.463 278.413 157.776 277.48C160.089 276.547 162.19 275.179 163.96 273.455C165.73 271.731 167.134 269.685 168.092 267.432C169.05 265.18 169.543 262.766 169.543 260.328V25.0327C169.543 22.5948 169.05 20.1806 168.092 17.9282C167.134 15.6758 165.73 13.6292 163.96 11.9053C162.19 10.1814 160.089 8.81392 157.776 7.88095C155.463 6.94797 152.984 6.46777 150.481 6.46777Z" fill="white"/>
<path d="M206.535 285.401H0.540667C0.397273 285.401 0.259752 285.345 0.158357 285.246C0.0569626 285.148 0 285.014 0 284.874C0 284.734 0.0569626 284.6 0.158357 284.502C0.259752 284.403 0.397273 284.347 0.540667 284.347H206.535C206.678 284.347 206.816 284.403 206.917 284.502C207.019 284.6 207.076 284.734 207.076 284.874C207.076 285.014 207.019 285.148 206.917 285.246C206.816 285.345 206.678 285.401 206.535 285.401Z" fill="#CBCBCB"/>
<path d="M103.538 182.024C128.754 182.024 149.195 162.116 149.195 137.558C149.195 112.999 128.754 93.0908 103.538 93.0908C78.3223 93.0908 57.8809 112.999 57.8809 137.558C57.8809 162.116 78.3223 182.024 103.538 182.024Z" fill="#002D2F"/>
<path d="M99.0132 154.52C97.986 154.522 96.9861 154.198 96.1644 153.598L96.1134 153.561L85.3833 145.567C84.8863 145.196 84.4693 144.733 84.156 144.205C83.8426 143.677 83.6392 143.094 83.5572 142.489C83.4752 141.885 83.5162 141.27 83.6781 140.681C83.8399 140.092 84.1192 139.54 84.5002 139.056C84.8812 138.572 85.3564 138.166 85.8985 137.86C86.4407 137.555 87.0393 137.357 87.66 137.277C88.2808 137.197 88.9117 137.237 89.5166 137.395C90.1216 137.553 90.6887 137.825 91.1857 138.196L98.1357 143.386L114.559 122.519C114.94 122.035 115.415 121.629 115.957 121.324C116.499 121.019 117.097 120.821 117.718 120.741C118.338 120.661 118.969 120.701 119.573 120.859C120.178 121.016 120.745 121.288 121.242 121.659L121.243 121.66L121.141 121.798L121.246 121.66C122.248 122.41 122.904 123.517 123.069 124.738C123.234 125.958 122.896 127.192 122.128 128.17L102.81 152.704C102.363 153.269 101.789 153.726 101.131 154.041C100.473 154.355 99.7499 154.517 99.0173 154.515L99.0132 154.52Z" fill="white"/>
<path d="M375.355 289.771C375.911 288.897 376.565 288.085 377.305 287.352C377.61 287.043 377.932 286.753 378.264 286.47C380.283 284.72 382.744 283.526 385.394 283.009C388.044 282.492 390.787 282.672 393.342 283.531C395.897 284.389 398.171 285.895 399.93 287.893C401.69 289.891 402.871 292.309 403.352 294.899C405.582 286.868 399.777 278.957 393.941 272.88C388.102 266.806 381.429 260.142 381.462 251.818C381.479 247.187 383.805 243.055 387.317 239.991C387.426 239.899 387.534 239.806 387.644 239.716C391.89 236.172 397.351 234.319 402.939 234.525C413.319 235.067 422.383 241.861 428.677 249.921C438.809 262.889 443.248 281.092 436.155 295.854C429.917 308.838 416.611 316.548 403.031 322.746C401.135 323.611 399.243 324.451 397.354 325.265C397.342 325.268 397.328 325.276 397.315 325.28C397.224 325.318 397.134 325.357 397.048 325.398C396.659 325.565 396.269 325.733 395.882 325.898L396.061 326.012L396.619 326.364C396.426 326.25 396.234 326.139 396.041 326.025C395.983 325.99 395.922 325.958 395.865 325.923C389.195 322.026 382.433 317.902 377.825 311.817C373.047 305.5 371.125 296.45 375.355 289.771Z" fill="#C7C7C7"/>
<path d="M419.853 275.1C421.33 278.372 422.309 281.836 422.76 285.384C423.114 288.547 422.981 291.744 422.365 294.868C421.04 301.29 418.152 307.307 413.942 312.415C410.767 316.293 407.1 319.764 403.031 322.746C401.135 323.612 399.242 324.452 397.354 325.265C397.341 325.268 397.327 325.277 397.315 325.28C397.224 325.319 397.133 325.358 397.048 325.398C396.658 325.566 396.268 325.733 395.882 325.899L396.061 326.013L396.619 326.365C396.425 326.25 396.234 326.14 396.04 326.025C395.983 325.991 395.922 325.958 395.865 325.924C397.332 320.923 397.548 315.653 396.494 310.555C395.44 305.457 393.146 300.679 389.805 296.622C386.446 292.616 382.163 289.44 377.305 287.352C377.61 287.044 377.932 286.754 378.264 286.471C380.135 287.308 381.927 288.304 383.618 289.449C389.667 293.52 394.209 299.38 396.572 306.162C398.681 312.314 398.945 318.925 397.331 325.218C397.666 325.004 398.002 324.786 398.329 324.568C404.542 320.487 410.269 315.586 414.582 309.576C418.302 304.497 420.683 298.604 421.514 292.418C422.341 285.66 420.605 279.015 417.507 272.985C414.086 266.534 409.775 260.569 404.695 255.255C399.592 249.795 393.823 244.963 387.515 240.868C387.373 240.775 387.273 240.632 387.236 240.469C387.199 240.306 387.228 240.135 387.317 239.992C387.384 239.862 387.502 239.763 387.644 239.717C387.716 239.699 387.791 239.697 387.864 239.712C387.937 239.726 388.006 239.756 388.065 239.8C388.844 240.306 389.616 240.817 390.379 241.343C396.731 245.723 402.5 250.856 407.553 256.621C412.436 262.179 416.88 268.354 419.853 275.1Z" fill="#A8A8A8"/>
<path d="M283.873 20.6477C289.228 20.6477 293.569 16.4197 293.569 11.2042C293.569 5.98864 289.228 1.76062 283.873 1.76062C278.518 1.76062 274.176 5.98864 274.176 11.2042C274.176 16.4197 278.518 20.6477 283.873 20.6477Z" fill="#F1F1F1"/>
<path d="M404.442 147.024C407.707 147.024 410.354 144.446 410.354 141.266C410.354 138.086 407.707 135.509 404.442 135.509C401.177 135.509 398.53 138.086 398.53 141.266C398.53 144.446 401.177 147.024 404.442 147.024Z" fill="#F1F1F1"/>
<path d="M231.428 162.822C234.693 162.822 237.34 160.244 237.34 157.064C237.34 153.884 234.693 151.306 231.428 151.306C228.163 151.306 225.517 153.884 225.517 157.064C225.517 160.244 228.163 162.822 231.428 162.822Z" fill="#F1F1F1"/>
<path d="M234.766 327H440.76C440.904 327 441.041 326.945 441.143 326.846C441.244 326.747 441.301 326.614 441.301 326.474C441.301 326.334 441.244 326.2 441.143 326.102C441.041 326.003 440.904 325.947 440.76 325.947H234.766C234.623 325.947 234.485 326.003 234.384 326.102C234.283 326.2 234.226 326.334 234.226 326.474C234.226 326.614 234.283 326.747 234.384 326.846C234.485 326.945 234.623 327 234.766 327Z" fill="#CBCBCB"/>
<path d="M418.027 50.8852C418.298 49.0148 417.854 47.1129 416.781 45.5396C415.708 43.9664 414.079 42.8312 412.204 42.3492C410.329 41.8672 408.338 42.0718 406.607 42.9244C404.876 43.7769 403.527 45.218 402.815 46.9748L386.099 65.6387L391.003 78.9803L407.814 57.1722C408.911 57.5144 410.072 57.6183 411.215 57.4763C412.357 57.3344 413.454 56.9502 414.428 56.3508C415.401 55.7514 416.228 54.9514 416.85 54.007C417.472 53.0627 417.874 51.9971 418.027 50.8852Z" fill="#FFB7B7"/>
<path d="M348.738 123.507L404.226 65.8319L396.741 54.2432L327.145 111.568L348.738 123.507Z" fill="#808080"/>
<path d="M336.353 88.4641C347.103 88.4641 355.817 79.977 355.817 69.5076C355.817 59.0382 347.103 50.551 336.353 50.551C325.603 50.551 316.889 59.0382 316.889 69.5076C316.889 79.977 325.603 88.4641 336.353 88.4641Z" fill="#393939"/>
<path d="M337.918 58.7981C342.106 54.6616 347.175 51.4696 352.766 49.4467C356.356 48.1516 360.262 47.3515 364.015 48.087C367.768 48.8224 371.316 51.3507 372.363 54.9365C373.219 57.8686 372.335 61.0256 371.007 63.7857C369.678 66.5459 367.905 69.1054 366.83 71.9686C365.734 74.89 365.404 78.0318 365.871 81.1088C366.338 84.1858 367.586 87.1005 369.503 89.5884C371.42 92.0762 373.944 94.0585 376.847 95.3551C379.75 96.6518 382.94 97.2218 386.126 97.0135C382.439 97.4949 379.041 99.1824 375.437 100.081C371.833 100.979 367.579 100.918 364.901 98.4034C362.068 95.7429 362.011 91.4173 362.148 87.5863C362.351 81.8915 362.555 76.1967 362.759 70.5018C362.863 67.5975 362.951 64.6002 361.876 61.8895C360.801 59.1787 358.245 56.8051 355.261 56.8298C353 56.8484 350.998 58.1826 349.185 59.4984C347.371 60.8142 345.452 62.218 343.199 62.4137C340.947 62.6094 338.375 60.9859 338.543 58.7896L337.918 58.7981Z" fill="#393939"/>
<path d="M262.428 196.792C260.559 197.297 258.565 197.118 256.823 196.287C255.081 195.456 253.713 194.032 252.977 192.285C252.242 190.537 252.19 188.587 252.831 186.805C253.473 185.023 254.764 183.531 256.459 182.614L273.274 164.035L287.496 167.027L267.493 186.109C267.985 187.124 268.242 188.231 268.247 189.353C268.252 190.474 268.004 191.584 267.521 192.602C267.038 193.621 266.332 194.524 265.452 195.248C264.572 195.971 263.539 196.498 262.428 196.792H262.428Z" fill="#FFB7B7"/>
<path d="M317.749 130.275L275.839 181.511L263.064 175.798L312.325 101.107L317.749 130.275Z" fill="#808080"/>
<path d="M284.309 284.985L274.321 284.833L275.522 317.989H284.307L284.309 284.985Z" fill="#FFB7B7"/>
<path d="M286.548 315.195L269.246 315.194H269.245C266.321 315.194 263.517 316.326 261.449 318.34C259.381 320.354 258.219 323.085 258.219 325.933V326.282L286.548 326.283L286.548 315.195Z" fill="#1E1E1E"/>
<path d="M350.442 276.192L339.531 283.014L361.356 308.587L368.75 303.964L350.442 276.192Z" fill="#FFB7B7"/>
<path d="M369.086 300.434L354.526 309.538L354.525 309.538C352.065 311.077 350.332 313.505 349.71 316.288C349.087 319.07 349.624 321.98 351.204 324.377L351.398 324.67L375.236 309.765L369.086 300.434Z" fill="#1E1E1E"/>
<path d="M354.329 174.948C354.329 174.948 330.086 96.5269 322.294 95.4672C314.503 94.4075 301.95 115.589 301.95 115.589C285.674 135.814 268.892 201.326 268.892 201.326C268.892 201.326 296.869 203.031 317.321 213.628C337.773 224.225 361.909 213.092 361.909 213.092L354.329 174.948Z" fill="#808080"/>
<path opacity="0.1" d="M354.329 174.947C354.329 174.947 330.086 96.5266 322.294 95.4668C314.503 94.4071 305.138 115.804 305.138 115.804C297.028 148.451 268.892 201.325 268.892 201.325C268.892 201.325 296.869 203.03 317.321 213.628C337.773 224.225 361.909 213.091 361.909 213.091L354.329 174.947Z" fill="black"/>
<path d="M334.439 151.485V190.891L339.2 247.973L362.99 291.152L351.636 299.05L319.196 257.978L306.365 217.196L286.215 307.476L271.076 306.422L281.59 181.251L301.541 146.018L334.439 151.485Z" fill="#393939"/>
<path d="M309.996 113.37C302.427 120.742 309.455 128.64 309.455 128.64L300.805 147.597L334.867 156.549L346.77 104.746L338.66 96.3205C322.44 95.7939 322.431 95.4666 322.431 95.4666C319.59 98.1751 309.996 113.37 309.996 113.37Z" fill="#002D2F"/>
<path d="M348.142 99.3796C346.594 98.2674 344.836 97.4653 342.969 97.0196C341.101 96.5739 339.161 96.4935 337.262 96.7831C335.362 97.0727 333.54 97.7265 331.902 98.7067C330.263 99.6869 328.841 100.974 327.717 102.493C319.154 114.105 311.236 132.856 322.145 156.241C339.662 193.791 354.906 213.013 361.103 213.011C361.374 213.013 361.643 212.972 361.899 212.889C365.714 211.629 371.229 205.342 372.228 199.803C372.585 197.82 372.5 195.058 370.065 193.161C363.071 187.713 350.516 170.75 346.599 148.422C344.435 136.084 348.632 124.846 352.535 117.591C354.183 114.589 354.665 111.109 353.893 107.789C353.121 104.469 351.146 101.532 348.33 99.5146L348.142 99.3796Z" fill="#808080"/>
<path d="M337.354 86.6017C344.297 82.9051 346.849 74.4265 343.053 67.6643C339.258 60.902 330.552 58.4168 323.609 62.1134C316.666 65.81 314.114 74.2885 317.91 81.0508C321.705 87.813 330.411 90.2982 337.354 86.6017Z" fill="#FFB7B7"/>
<path d="M310.332 73.302H331.021L331.233 70.4091L332.294 73.302H335.48L335.9 67.5684L338.002 73.302H344.167V73.0179C344.162 69.0263 342.532 65.1994 339.634 62.3769C336.736 59.5543 332.806 57.9667 328.708 57.9622H325.791C321.692 57.9667 317.763 59.5543 314.865 62.3769C311.967 65.1994 310.337 69.0263 310.332 73.0179V73.302Z" fill="#393939"/>
<path d="M341.041 83.7009L349.87 80.9107V60.0293H333.194L333.607 60.4308C339.351 66.0182 345.74 85.8415 341.041 83.7009Z" fill="#393939"/>
</g>
<defs>
<clipPath id="clip0">
<rect width="441.301" height="327" fill="white"/>
</clipPath>
</defs>
</svg>
