<svg width="295" height="175" viewBox="0 0 295 175" fill="none" xmlns="http://www.w3.org/2000/svg">
<g clip-path="url(#clip0)">
<path d="M245.639 173.582C242.943 171.313 241.305 167.728 241.734 164.239C242.164 160.749 244.824 157.542 248.275 156.801C251.726 156.06 255.659 158.111 256.707 161.468C257.284 154.996 257.949 148.252 261.404 142.74C264.533 137.75 269.951 134.179 275.824 133.54C281.697 132.901 287.88 135.314 291.543 139.93C295.205 144.546 296.102 151.258 293.537 156.558C291.647 160.462 288.166 163.367 284.518 165.731C272.731 173.305 258.594 176.385 244.708 174.405" fill="#F2F2F2"/>
<path d="M285.735 135.447C280.89 139.378 276.444 143.774 272.463 148.573C266.233 156.056 261.192 164.446 257.515 173.451C257.246 174.108 258.317 174.394 258.583 173.744C264.599 159.11 274.204 146.211 286.519 136.227C287.072 135.779 286.284 135.003 285.735 135.447V135.447Z" fill="white"/>
<path d="M144.972 11.0486C144.972 11.1277 144.94 11.2035 144.884 11.2595C144.828 11.3154 144.751 11.347 144.672 11.3472H144.528C144.306 11.1561 144.09 10.956 143.88 10.75H144.672C144.751 10.7502 144.828 10.7818 144.884 10.8377C144.94 10.8937 144.972 10.9695 144.972 11.0486Z" fill="#F2F2F2"/>
<path d="M152.168 0H76.9084C76.352 0.000615705 75.8185 0.221036 75.425 0.612906C75.0315 1.00478 74.8102 1.53609 74.8096 2.09028V42.7014C74.8102 43.2556 75.0315 43.7869 75.425 44.1788C75.8185 44.5707 76.352 44.7911 76.9084 44.7917H152.168C152.724 44.7911 153.258 44.5707 153.651 44.1788C154.045 43.7869 154.266 43.2556 154.267 42.7014V2.09028C154.266 1.53609 154.045 1.00478 153.651 0.612906C153.258 0.221036 152.724 0.000615705 152.168 0ZM153.667 42.7014C153.667 43.0974 153.509 43.477 153.228 43.757C152.947 44.037 152.565 44.1943 152.168 44.1945H76.9084C76.5109 44.1943 76.1296 44.037 75.8485 43.757C75.5674 43.477 75.4094 43.0974 75.4092 42.7014V2.09028C75.4094 1.69435 75.5674 1.31467 75.8485 1.0347C76.1296 0.754733 76.5109 0.597381 76.9084 0.597223H152.168C152.565 0.597381 152.947 0.754733 153.228 1.0347C153.509 1.31467 153.667 1.69435 153.667 2.09028V42.7014Z" fill="#3F3D56"/>
<path d="M106.509 17.6659C105.612 15.5219 104.218 13.7362 102.191 12.5537C100.065 11.3085 97.6334 10.2723 95.1867 9.89903C92.7375 9.53842 90.2402 9.6776 87.8466 10.3081C87.5348 10.3887 87.211 10.4753 86.8873 10.5709C86.0454 10.7873 85.245 11.1405 84.5184 11.616C84.4944 11.631 84.4705 11.6459 84.4465 11.6638C83.517 12.3447 82.8813 13.4674 82.3597 14.4738C81.865 15.4383 81.5531 16.5013 81.823 17.5793C82.1155 18.5626 82.7244 19.423 83.5559 20.0279C84.1347 20.4818 84.8932 21.0552 85.6668 21.0671C85.8498 21.0712 86.0319 21.0408 86.2035 20.9775C86.2572 20.9587 86.3085 20.9336 86.3564 20.9029C86.6681 20.9961 86.9906 21.0493 87.3159 21.0611C88.6322 21.1209 89.9486 20.5654 91.3008 20.1115C91.6178 20.0014 91.9425 19.9146 92.2723 19.8518C92.8627 19.7237 93.4758 19.7443 94.0562 19.9115C94.1635 19.9416 94.2686 19.9785 94.3712 20.022C95.373 20.4898 96.2182 21.2352 96.8057 22.169C97.3785 23.017 97.7564 23.9815 98.3859 24.7968C98.6985 25.2169 99.0963 25.5669 99.5534 25.8241C100.011 26.0813 100.517 26.24 101.039 26.2898C102.611 26.463 104.584 26.3794 105.936 25.4388C106.303 25.1891 106.618 24.8706 106.862 24.5011C106.886 24.4653 106.91 24.4295 106.931 24.3936C108.176 22.3541 107.36 19.6935 106.509 17.6659ZM85.7927 14.5335C86.0926 14.5663 86.3955 14.6021 86.6953 14.635C86.1218 14.737 85.5851 14.9872 85.1392 15.3606C84.9697 15.5039 84.8122 15.6607 84.6683 15.8294C84.6743 15.8175 84.6743 15.8026 84.6803 15.7906C84.7682 15.5158 84.9125 15.2621 85.104 15.0457C85.2955 14.8293 85.53 14.6549 85.7927 14.5335V14.5335ZM103.87 22.1182C103.924 22.1063 103.981 22.0973 104.035 22.0883C104.121 22.0749 104.203 22.0423 104.275 21.9928C104.275 22.0017 104.278 22.0137 104.278 22.0226C104.278 22.0626 104.281 22.1025 104.287 22.1421C104.272 22.166 104.26 22.1899 104.245 22.2138C104.119 22.1809 103.996 22.1481 103.87 22.1182L103.87 22.1182ZM103.033 14.856C103.697 15.4803 104.262 16.2012 104.71 16.994C104.18 16.3501 103.595 15.7535 102.962 15.2113C103.009 15.0989 103.034 14.978 103.033 14.856V14.856ZM102.305 23.3276C102.279 23.3713 102.26 23.4186 102.248 23.4679C102.167 23.4709 102.083 23.4739 101.999 23.4739H101.957C101.954 23.4619 101.948 23.447 101.945 23.4351C101.927 23.3813 101.912 23.3276 101.894 23.2738C102.032 23.2917 102.167 23.3097 102.305 23.3276V23.3276ZM95.8943 16.6297C95.9023 16.5693 95.9043 16.5083 95.9003 16.4476C95.9663 16.4972 96.0435 16.53 96.1251 16.5431C96.1342 16.5461 96.1462 16.5461 96.1552 16.5491C96.2121 16.5819 96.2661 16.6118 96.3231 16.6446L96.3051 16.6715C96.1672 16.6566 96.0293 16.6446 95.8943 16.6297V16.6297ZM100.644 15.1426H100.635C100.437 15.0202 100.239 14.8978 100.038 14.7813C100.242 14.8948 100.446 15.0172 100.644 15.1426V15.1426ZM99.5403 20.7386C99.5094 20.7695 99.4832 20.8047 99.4625 20.8431C99.4474 20.8222 99.4354 20.8043 99.4204 20.7834C99.4582 20.7631 99.4985 20.748 99.5403 20.7386V20.7386ZM96.8538 14.8888C96.7872 14.8361 96.7135 14.7929 96.6349 14.7604C96.2487 14.612 95.853 14.4893 95.4505 14.3931C95.3906 14.3364 95.3306 14.2796 95.2736 14.2199C95.614 14.2855 95.9503 14.3703 96.2811 14.4737C96.7047 14.609 97.1202 14.7686 97.5254 14.9515C97.3005 14.9276 97.0787 14.9067 96.8538 14.8888L96.8538 14.8888ZM94.569 11.1442C95.4317 11.2589 96.2819 11.4529 97.1087 11.7235C97.0247 11.7026 96.9408 11.6847 96.8569 11.6638C96.0622 11.4846 95.2527 11.2935 94.4371 11.1293C94.482 11.1353 94.5241 11.1383 94.569 11.1442L94.569 11.1442Z" fill="#CCCCCC"/>
<path d="M97.7991 34.3336C97.0428 34.3125 96.1016 34.2862 95.3769 33.759C95.1611 33.5955 94.9837 33.3869 94.8572 33.148C94.7308 32.909 94.6584 32.6454 94.645 32.3757C94.6319 32.1839 94.6635 31.9918 94.7373 31.8143C94.8111 31.6368 94.9251 31.4786 95.0705 31.3523C95.2865 31.1917 95.5394 31.0875 95.8063 31.0492C96.0731 31.011 96.3453 31.0399 96.598 31.1333L95.9806 26.6398L96.4338 26.578L97.1596 31.8606L96.7812 31.6876C96.3424 31.4872 95.7401 31.3853 95.3658 31.7002C95.2739 31.7825 95.2023 31.8848 95.1566 31.9992C95.1108 32.1135 95.0922 32.2368 95.1022 32.3595C95.1132 32.5603 95.1676 32.7564 95.2616 32.9344C95.3556 33.1124 95.4869 33.2681 95.6468 33.391C96.2107 33.8015 96.9609 33.8544 97.8119 33.8782L97.7991 34.3336Z" fill="#3F3D56"/>
<path d="M93.7394 27.0272H91.2756V27.4828H93.7394V27.0272Z" fill="#3F3D56"/>
<path d="M101.516 27.0272H99.0522V27.4828H101.516V27.0272Z" fill="#3F3D56"/>
<path d="M86.995 20.7361C85.011 20.5108 83.4744 18.6176 83.3056 16.6967C83.1049 14.4115 84.4412 12.241 86.2745 10.9587C88.1917 9.61762 90.5804 9.05759 92.8916 8.93431C97.4001 8.71087 101.831 10.1653 105.322 13.0149C107.054 14.4473 108.672 16.272 109.285 18.476C109.817 20.3901 109.384 22.5585 107.838 23.8991C107.456 24.2276 107.009 24.4736 106.526 24.6216C106.044 24.7696 105.535 24.8164 105.034 24.7589C103.834 24.6349 102.728 24.0068 101.77 23.3132C99.9064 21.9639 98.3766 20.0842 96.1064 19.3791C94.4418 18.8621 92.2816 19.3171 91.2644 20.8163C91.0335 21.1595 90.884 21.5504 90.8269 21.9595C90.8059 22.0468 90.8189 22.1387 90.8634 22.2168C90.9079 22.2948 90.9805 22.3531 91.0665 22.3798C91.1543 22.4034 91.2478 22.3915 91.3268 22.3468C91.4058 22.3021 91.4639 22.2283 91.4886 22.1412C91.7556 20.2529 94.0869 19.5483 95.7229 19.9796C98.1082 20.6083 99.7094 22.7281 101.666 24.0749C102.679 24.8272 103.873 25.3016 105.128 25.4508C106.216 25.5358 107.295 25.2054 108.148 24.5268C109.819 23.212 110.459 20.9506 110.089 18.9146C109.661 16.5569 108.068 14.5362 106.319 12.9718C102.775 9.83368 98.1735 8.1408 93.4319 8.23044C91.0135 8.28576 88.49 8.78298 86.4065 10.056C84.3856 11.2908 82.8235 13.3567 82.6194 15.758C82.4397 17.8717 83.5783 20.0825 85.533 21.0085C85.9938 21.2259 86.488 21.3648 86.995 21.4195C87.433 21.4692 87.4295 20.7854 86.995 20.7361H86.995Z" fill="#3F3D56"/>
<path d="M144.972 11.0486C144.972 11.1277 144.94 11.2035 144.884 11.2595C144.828 11.3154 144.751 11.347 144.672 11.3472H120.085C120.006 11.3472 119.929 11.3158 119.873 11.2598C119.817 11.2038 119.785 11.1278 119.785 11.0486C119.785 10.9694 119.817 10.8935 119.873 10.8375C119.929 10.7815 120.006 10.75 120.085 10.75H144.672C144.751 10.7502 144.828 10.7818 144.884 10.8377C144.94 10.8937 144.972 10.9695 144.972 11.0486Z" fill="#3F3D56"/>
<path d="M144.672 15.8263H120.085C120.006 15.8263 119.929 15.7949 119.873 15.7389C119.817 15.6829 119.785 15.6069 119.785 15.5277C119.785 15.4485 119.817 15.3726 119.873 15.3166C119.929 15.2606 120.006 15.2291 120.085 15.2291H144.672C144.751 15.2291 144.828 15.2606 144.884 15.3166C144.94 15.3726 144.972 15.4485 144.972 15.5277C144.972 15.6069 144.94 15.6829 144.884 15.7389C144.828 15.7949 144.751 15.8263 144.672 15.8263Z" fill="#3F3D56"/>
<path d="M144.672 20.3058H120.085C120.006 20.3058 119.929 20.2744 119.873 20.2184C119.817 20.1624 119.785 20.0864 119.785 20.0072C119.785 19.928 119.817 19.8521 119.873 19.7961C119.929 19.7401 120.006 19.7086 120.085 19.7086H144.672C144.751 19.7086 144.828 19.7401 144.884 19.7961C144.94 19.8521 144.972 19.928 144.972 20.0072C144.972 20.0864 144.94 20.1624 144.884 20.2184C144.828 20.2744 144.751 20.3058 144.672 20.3058Z" fill="#3F3D56"/>
<path d="M144.672 24.7846H120.085C120.006 24.7846 119.929 24.7531 119.873 24.6971C119.817 24.6411 119.785 24.5652 119.785 24.486C119.785 24.4068 119.817 24.3308 119.873 24.2748C119.929 24.2188 120.006 24.1874 120.085 24.1874H144.672C144.751 24.1874 144.828 24.2188 144.884 24.2748C144.94 24.3308 144.972 24.4068 144.972 24.486C144.972 24.5652 144.94 24.6411 144.884 24.6971C144.828 24.7531 144.751 24.7846 144.672 24.7846Z" fill="#3F3D56"/>
<path d="M144.672 29.2637H120.085C120.006 29.2637 119.929 29.2323 119.873 29.1763C119.817 29.1203 119.785 29.0443 119.785 28.9651C119.785 28.8859 119.817 28.81 119.873 28.754C119.929 28.698 120.006 28.6665 120.085 28.6665H144.672C144.751 28.6665 144.828 28.698 144.884 28.754C144.94 28.81 144.972 28.8859 144.972 28.9651C144.972 29.0443 144.94 29.1203 144.884 29.1763C144.828 29.2323 144.751 29.2637 144.672 29.2637Z" fill="#3F3D56"/>
<path d="M144.672 33.7431H120.085C120.006 33.7431 119.929 33.7116 119.873 33.6556C119.817 33.5996 119.785 33.5237 119.785 33.4445C119.785 33.3653 119.817 33.2893 119.873 33.2333C119.929 33.1773 120.006 33.1459 120.085 33.1459H144.672C144.751 33.1459 144.828 33.1773 144.884 33.2333C144.94 33.2893 144.972 33.3653 144.972 33.4445C144.972 33.5237 144.94 33.5996 144.884 33.6556C144.828 33.7116 144.751 33.7431 144.672 33.7431Z" fill="#3F3D56"/>
<path d="M55.8092 73.6241C54.9735 73.6265 54.1668 73.3199 53.5452 72.7637C53.1973 72.4547 52.9165 72.0781 52.72 71.6571C52.5235 71.2361 52.4154 70.7796 52.4025 70.3155L39.0968 60.6781C38.6954 60.3873 38.3619 60.0134 38.1195 59.5819C37.8771 59.1505 37.7315 58.6719 37.6927 58.179C37.6538 57.6861 37.7227 57.1907 37.8946 56.7269C38.0665 56.2631 38.3373 55.8419 38.6883 55.4924L48.5944 45.6268C49.0026 45.2203 49.5226 44.9434 50.0888 44.8313C50.655 44.7191 51.2419 44.7766 51.7752 44.9967C52.3086 45.2167 52.7644 45.5892 53.0851 46.0673C53.4058 46.5453 53.577 47.1073 53.577 47.6822C53.4961 49.1904 52.8992 50.6255 51.8856 51.7489L45.1595 58.4476L55.7163 66.8281C55.7489 66.8259 55.7814 66.8241 55.8144 66.8241C56.6861 66.8241 57.5247 67.156 58.1585 67.7519C58.7923 68.3478 59.1732 69.1626 59.2232 70.0292C59.2732 70.8959 58.9885 71.7487 58.4274 72.413C57.8664 73.0773 57.0714 73.5027 56.2055 73.6021C56.0739 73.6167 55.9416 73.6241 55.8092 73.6241Z" fill="#FFB8B8"/>
<path d="M71.6203 130.548L75.1904 129.22L71.7486 114.874L66.4792 116.833L71.6203 130.548Z" fill="#FFB8B8"/>
<path d="M83.3135 129.962L72.0928 134.134L70.4743 129.816L77.5133 127.199C78.6223 126.787 79.8505 126.83 80.9275 127.32C82.0045 127.809 82.8421 128.705 83.2562 129.809L83.3135 129.962Z" fill="#2F2E41"/>
<path d="M39.5011 131.199H43.312L45.1249 116.56L39.5005 116.56L39.5011 131.199Z" fill="#FFB8B8"/>
<path d="M50.6616 134.723L38.6845 134.723L38.6843 130.114L46.1978 130.114C47.3816 130.114 48.517 130.582 49.3541 131.416C50.1912 132.25 50.6616 133.38 50.6616 134.559L50.6616 134.723Z" fill="#2F2E41"/>
<path d="M43.6141 127.204C43.5714 127.204 43.5285 127.202 43.4854 127.198L39.4457 126.815C39.1181 126.784 38.8132 126.635 38.5883 126.395C38.3635 126.156 38.2342 125.843 38.2249 125.515C37.9918 116.803 37.4046 72.8315 48.7664 62.7551C48.9634 62.5826 49.2076 62.4727 49.4677 62.4394V62.4393C51.5257 62.1583 58.4689 61.4694 61.4078 64.4134C61.5943 64.5987 61.7235 64.8335 61.78 65.0898L74.6455 124.331C74.6851 124.513 74.6861 124.701 74.6486 124.884C74.611 125.067 74.5357 125.24 74.4274 125.392C74.3191 125.544 74.1802 125.672 74.0195 125.768C73.8588 125.863 73.6799 125.925 73.4941 125.948L68.5613 126.562C68.3832 126.584 68.2024 126.571 68.0294 126.523C67.8565 126.475 67.695 126.393 67.5544 126.281C67.4138 126.17 67.297 126.032 67.2107 125.875C67.1244 125.719 67.0705 125.546 67.052 125.368C66.5612 120.606 63.612 96.4179 53.7286 87.8439C53.5948 87.7268 53.4336 87.645 53.2599 87.6061C53.0861 87.5672 52.9054 87.5724 52.7342 87.6212C52.5665 87.6676 52.4134 87.7557 52.2893 87.8773C52.1653 87.9988 52.0744 88.1499 52.0252 88.3161C50.1956 94.2783 44.2787 114.6 44.9587 125.78C44.9701 125.963 44.9437 126.146 44.8813 126.319C44.8188 126.491 44.7216 126.649 44.5957 126.782C44.4697 126.915 44.3176 127.022 44.1488 127.094C43.98 127.167 43.798 127.204 43.6141 127.204V127.204Z" fill="#2F2E41"/>
<path d="M51.3887 38.5153C55.456 38.5153 58.7531 35.2317 58.7531 31.1811C58.7531 27.1306 55.456 23.8469 51.3887 23.8469C47.3215 23.8469 44.0244 27.1306 44.0244 31.1811C44.0244 35.2317 47.3215 38.5153 51.3887 38.5153Z" fill="#FFB8B8"/>
<path d="M44.1577 44.994C44.1577 44.994 50.9963 36.9451 56.5915 43.4462C60.1916 47.6291 62.0957 52.999 61.9315 58.5058L61.7205 65.5807L48.8204 63.5684L44.1577 44.994Z" fill="#002D2F"/>
<path d="M62.1289 60.59C62.0753 60.59 62.0215 60.5888 61.9677 60.5866C61.4166 60.5639 60.877 60.4223 60.3862 60.1716C59.8953 59.9209 59.465 59.5671 59.1248 59.1347L50.7547 48.5063C50.3984 48.0539 50.1849 47.5065 50.141 46.9332C50.0971 46.36 50.225 45.7866 50.5083 45.2857C50.7916 44.7848 51.2177 44.3788 51.7327 44.1191C52.2477 43.8593 52.8284 43.7575 53.4015 43.8265L54.58 43.9683C55.3325 44.0998 56.0171 44.484 56.5201 45.0568L63.1228 53.4409L72.7438 44.009C72.7456 43.9766 72.7478 43.9443 72.7517 43.9116C72.8321 43.2478 73.1073 42.6224 73.5427 42.1135C73.9782 41.6046 74.5546 41.2349 75.2 41.0506C75.8453 40.8663 76.5309 40.8755 77.171 41.0772C77.811 41.2789 78.3772 41.664 78.7986 42.1845C79.2201 42.7049 79.4781 43.3376 79.5404 44.0033C79.6027 44.669 79.4665 45.3383 79.1489 45.9273C78.8313 46.5164 78.3464 46.9991 77.7548 47.3151C77.1631 47.6311 76.4911 47.7664 75.8227 47.704L64.9228 59.3773C64.5659 59.76 64.1336 60.0652 63.6529 60.2739C63.1721 60.4825 62.6533 60.5901 62.1289 60.59Z" fill="#FFB8B8"/>
<path d="M52.5824 32.4502L55.7464 28.7379C56.5618 27.7812 57.4147 26.7392 57.53 25.4896C57.6564 24.1198 56.8198 22.7883 55.6761 22.0171C54.5323 21.2459 53.1279 20.9557 51.7508 20.8492C49.1967 20.6517 46.5091 21.0721 44.4095 22.5338C42.3099 23.9956 40.9362 26.6345 41.4482 29.1344C41.8513 31.1027 43.3366 32.9883 42.7593 34.9131C42.1276 37.0192 39.5371 37.6654 37.422 38.2934C33.8718 39.3476 30.4818 41.4229 28.6212 44.6134C26.7607 47.8038 26.7688 52.2031 29.249 54.9438C30.855 56.7184 33.2771 57.6159 35.6722 57.7509C38.0672 57.886 40.451 57.3242 42.7224 56.5558C44.8143 55.8482 46.8836 54.938 48.5304 53.4714C50.1773 52.0048 51.3637 49.9061 51.3123 47.7065C51.2634 45.6103 50.1359 43.7008 49.6727 41.6554C49.3074 39.9426 49.4032 38.1641 49.9506 36.5001C50.498 34.8361 51.4774 33.3459 52.7896 32.1805" fill="#2F2E41"/>
<path d="M206.139 106.604H130.88C130.323 106.603 129.79 106.383 129.396 105.991C129.003 105.599 128.781 105.068 128.781 104.514V63.9027C128.781 63.3485 129.003 62.8172 129.396 62.4253C129.79 62.0334 130.323 61.813 130.88 61.8124H206.139C206.695 61.813 207.229 62.0334 207.622 62.4253C208.016 62.8172 208.237 63.3485 208.238 63.9027V104.514C208.237 105.068 208.016 105.599 207.622 105.991C207.229 106.383 206.695 106.603 206.139 106.604ZM130.88 62.4096C130.482 62.4101 130.101 62.5675 129.82 62.8474C129.539 63.1273 129.381 63.5068 129.38 63.9027V104.514C129.381 104.91 129.539 105.289 129.82 105.569C130.101 105.849 130.482 106.006 130.88 106.007H206.139C206.536 106.006 206.918 105.849 207.199 105.569C207.48 105.289 207.638 104.91 207.638 104.514V63.9027C207.638 63.5068 207.48 63.1273 207.199 62.8474C206.918 62.5675 206.536 62.4101 206.139 62.4096H130.88Z" fill="#3F3D56"/>
<path d="M160.481 79.4774C159.582 77.3357 158.187 75.5493 156.162 74.3653C154.034 73.1212 151.605 72.0853 149.158 71.7116C146.709 71.3512 144.211 71.4904 141.818 72.1208C140.664 72.4185 139.391 72.7642 138.418 73.4769C137.488 74.1581 136.851 75.2788 136.332 76.2856C135.835 77.2502 135.525 78.3123 135.794 79.3926C136.086 80.3762 136.696 81.2366 137.528 81.8411C138.236 82.3984 139.227 83.1362 140.174 82.7908C140.228 82.7711 140.28 82.7453 140.327 82.7139C141.964 83.2097 143.59 82.4886 145.27 81.9241C146.291 81.5809 147.317 81.4074 148.342 81.8357C149.344 82.3027 150.189 83.0472 150.777 83.9802C151.35 84.8301 151.728 85.7951 152.357 86.6099C152.669 87.0293 153.067 87.3788 153.524 87.6357C153.981 87.8926 154.487 88.0512 155.009 88.1014C157.038 88.3275 159.732 88.1192 160.901 86.2055C162.147 84.1662 161.332 81.5071 160.481 79.4774ZM139.764 76.3454C140.065 76.3795 140.366 76.4134 140.667 76.4474C140.093 76.5502 139.557 76.8008 139.11 77.1741C138.941 77.3168 138.783 77.4734 138.64 77.6423C138.644 77.6286 138.646 77.6156 138.651 77.6017C138.739 77.3273 138.884 77.074 139.076 76.8578C139.267 76.6416 139.501 76.4671 139.764 76.3454ZM149.87 78.2599C149.936 78.3098 150.014 78.3429 150.097 78.3563C150.106 78.3579 150.116 78.3597 150.126 78.3613C150.181 78.3933 150.238 78.425 150.294 78.4564C150.288 78.4652 150.283 78.4749 150.277 78.4839C150.139 78.4698 150.001 78.4562 149.864 78.4424C149.873 78.3821 149.875 78.3207 149.87 78.2599ZM153.512 82.5499C153.482 82.5819 153.455 82.6172 153.432 82.6551C153.419 82.6356 153.405 82.6161 153.392 82.5965C153.429 82.5746 153.47 82.5588 153.512 82.5499ZM155.865 85.0858C156.002 85.1037 156.138 85.1215 156.274 85.1394C156.249 85.1835 156.23 85.2311 156.219 85.2807C156.122 85.2838 156.025 85.2854 155.927 85.2858L155.865 85.0858ZM157.841 83.9294L158.006 83.9012C158.092 83.8873 158.174 83.8548 158.246 83.806C158.247 83.8156 158.247 83.8253 158.248 83.8349C158.249 83.8677 158.252 83.9085 158.256 83.955C158.243 83.9785 158.229 84.0019 158.215 84.025C158.09 83.9931 157.966 83.9613 157.841 83.9294ZM150.824 76.7027C150.759 76.6483 150.685 76.605 150.605 76.5743C150.219 76.4257 149.823 76.3024 149.421 76.2053C149.36 76.1489 149.301 76.091 149.244 76.0316C149.584 76.0983 149.92 76.1835 150.25 76.2867C150.674 76.422 151.09 76.5813 151.496 76.7637C151.272 76.7388 151.048 76.7185 150.824 76.7027ZM154.604 76.9549C154.407 76.8321 154.208 76.7117 154.009 76.5934C154.213 76.7083 154.415 76.8287 154.614 76.9547L154.604 76.9549ZM158.68 78.8073C158.151 78.1629 157.566 77.5663 156.931 77.0242C156.98 76.9122 157.005 76.7911 157.004 76.6689C157.668 77.2927 158.233 78.0138 158.68 78.8073ZM151.079 73.5345C150.995 73.5153 150.912 73.4959 150.828 73.4771C150.034 73.2985 149.224 73.1061 148.407 72.9428C148.451 72.948 148.495 72.9522 148.539 72.9577C149.402 73.0715 150.252 73.2646 151.079 73.5345Z" fill="#002D2F"/>
<path d="M151.77 96.1459C151.014 96.1249 150.073 96.0986 149.348 95.5714C149.132 95.4079 148.955 95.1993 148.828 94.9604C148.702 94.7214 148.629 94.4578 148.616 94.188C148.603 93.9963 148.634 93.8042 148.708 93.6267C148.782 93.4491 148.896 93.291 149.041 93.1646C149.257 93.0041 149.51 92.8999 149.777 92.8616C150.044 92.8234 150.316 92.8523 150.569 92.9456L149.952 88.4522L150.405 88.3904L151.131 93.6729L150.752 93.5C150.313 93.2996 149.711 93.1977 149.337 93.5126C149.245 93.5949 149.173 93.6972 149.128 93.8115C149.082 93.9259 149.063 94.0492 149.073 94.1719C149.084 94.3727 149.139 94.5688 149.233 94.7468C149.327 94.9248 149.458 95.0805 149.618 95.2034C150.182 95.6138 150.932 95.6668 151.783 95.6906L151.77 96.1459Z" fill="#3F3D56"/>
<path d="M147.71 88.8396H145.246V89.2952H147.71V88.8396Z" fill="#3F3D56"/>
<path d="M155.487 88.8396H153.023V89.2952H155.487V88.8396Z" fill="#3F3D56"/>
<path d="M140.966 82.5486C138.982 82.3233 137.445 80.4301 137.277 78.5092C137.076 76.224 138.412 74.0535 140.245 72.7712C142.163 71.4301 144.551 70.8701 146.863 70.7468C151.371 70.5234 155.802 71.9778 159.293 74.8274C161.025 76.2598 162.643 78.0845 163.256 80.2885C163.788 82.2026 163.355 84.371 161.809 85.7116C161.427 86.0401 160.98 86.2861 160.497 86.4341C160.015 86.5821 159.506 86.6288 159.005 86.5714C157.805 86.4474 156.699 85.8193 155.741 85.1257C153.877 83.7764 152.348 81.8967 150.077 81.1916C148.413 80.6745 146.253 81.1296 145.235 82.6288C145.004 82.972 144.855 83.3629 144.798 83.772C144.777 83.8593 144.79 83.9512 144.834 84.0293C144.879 84.1073 144.951 84.1656 145.037 84.1923C145.125 84.2159 145.219 84.204 145.298 84.1593C145.377 84.1146 145.435 84.0408 145.46 83.9537C145.727 82.0654 148.058 81.3608 149.694 81.7921C152.079 82.4208 153.68 84.5406 155.637 85.8874C156.65 86.6397 157.844 87.1141 159.099 87.2632C160.187 87.3482 161.266 87.0179 162.119 86.3393C163.79 85.0245 164.43 82.7631 164.06 80.7271C163.632 78.3694 162.039 76.3487 160.29 74.7842C156.746 71.6462 152.144 69.9533 147.403 70.0429C144.984 70.0983 142.461 70.5955 140.377 71.8685C138.357 73.1033 136.794 75.1692 136.59 77.5705C136.411 79.6842 137.549 81.895 139.504 82.821C139.965 83.0384 140.459 83.1773 140.966 83.232C141.404 83.2817 141.4 82.5979 140.966 82.5486H140.966Z" fill="#3F3D56"/>
<path d="M198.643 73.1596H174.056C173.977 73.1596 173.9 73.1281 173.844 73.0721C173.788 73.0161 173.756 72.9402 173.756 72.861C173.756 72.7818 173.788 72.7058 173.844 72.6498C173.9 72.5938 173.977 72.5624 174.056 72.5624H198.643C198.722 72.5624 198.799 72.5938 198.855 72.6498C198.911 72.7058 198.943 72.7818 198.943 72.861C198.943 72.9402 198.911 73.0161 198.855 73.0721C198.799 73.1281 198.722 73.1596 198.643 73.1596Z" fill="#3F3D56"/>
<path d="M198.643 77.6391H174.056C173.977 77.6391 173.9 77.6076 173.844 77.5516C173.788 77.4956 173.756 77.4197 173.756 77.3405C173.756 77.2613 173.788 77.1853 173.844 77.1293C173.9 77.0733 173.977 77.0419 174.056 77.0419H198.643C198.722 77.0419 198.799 77.0733 198.855 77.1293C198.911 77.1853 198.943 77.2613 198.943 77.3405C198.943 77.4197 198.911 77.4956 198.855 77.5516C198.799 77.6076 198.722 77.6391 198.643 77.6391Z" fill="#3F3D56"/>
<path d="M198.643 82.1182H174.056C173.977 82.1182 173.9 82.0868 173.844 82.0308C173.788 81.9748 173.756 81.8988 173.756 81.8196C173.756 81.7404 173.788 81.6645 173.844 81.6085C173.9 81.5525 173.977 81.521 174.056 81.521H198.643C198.722 81.521 198.799 81.5525 198.855 81.6085C198.911 81.6645 198.943 81.7404 198.943 81.8196C198.943 81.8988 198.911 81.9748 198.855 82.0308C198.799 82.0868 198.722 82.1182 198.643 82.1182Z" fill="#3F3D56"/>
<path d="M198.643 86.5977H174.056C173.977 86.5977 173.9 86.5662 173.844 86.5102C173.788 86.4542 173.756 86.3783 173.756 86.2991C173.756 86.2199 173.788 86.144 173.844 86.088C173.9 86.032 173.977 86.0005 174.056 86.0005H198.643C198.722 86.0005 198.799 86.032 198.855 86.088C198.911 86.144 198.943 86.2199 198.943 86.2991C198.943 86.3783 198.911 86.4542 198.855 86.5102C198.799 86.5662 198.722 86.5977 198.643 86.5977Z" fill="#3F3D56"/>
<path d="M198.643 91.0765H174.056C173.977 91.0765 173.9 91.045 173.844 90.989C173.788 90.933 173.756 90.8571 173.756 90.7779C173.756 90.6987 173.788 90.6227 173.844 90.5667C173.9 90.5107 173.977 90.4792 174.056 90.4792H198.643C198.722 90.4792 198.799 90.5107 198.855 90.5667C198.911 90.6227 198.943 90.6987 198.943 90.7779C198.943 90.8571 198.911 90.933 198.855 90.989C198.799 91.045 198.722 91.0765 198.643 91.0765Z" fill="#3F3D56"/>
<path d="M198.643 95.5556H174.056C173.977 95.5556 173.9 95.5242 173.844 95.4682C173.788 95.4122 173.756 95.3362 173.756 95.257C173.756 95.1778 173.788 95.1018 173.844 95.0458C173.9 94.9898 173.977 94.9584 174.056 94.9584H198.643C198.722 94.9584 198.799 94.9898 198.855 95.0458C198.911 95.1018 198.943 95.1778 198.943 95.257C198.943 95.3362 198.911 95.4122 198.855 95.4682C198.799 95.5242 198.722 95.5556 198.643 95.5556Z" fill="#3F3D56"/>
<path d="M244.574 63.2089C248.919 63.2089 252.441 59.7009 252.441 55.3737C252.441 51.0464 248.919 47.5385 244.574 47.5385C240.229 47.5385 236.707 51.0464 236.707 55.3737C236.707 59.7009 240.229 63.2089 244.574 63.2089Z" fill="#FFB8B8"/>
<path d="M221.127 170.812L217.385 169.625L220.205 154.687L225.727 156.439L221.127 170.812Z" fill="#FFB8B8"/>
<path d="M214.884 167.656L222.27 170L220.821 174.525L209.062 170.792L209.116 170.623C209.299 170.051 209.594 169.521 209.983 169.062C210.372 168.603 210.847 168.225 211.383 167.95C211.918 167.674 212.503 167.507 213.104 167.456C213.705 167.406 214.309 167.474 214.884 167.656Z" fill="#2F2E41"/>
<path d="M248.349 170.735H244.422L242.553 155.649H248.349V170.735Z" fill="#FFB8B8"/>
<path d="M241.439 169.617H249.191V174.366H236.848V174.189C236.848 173.588 236.967 172.994 237.198 172.439C237.428 171.885 237.767 171.381 238.193 170.956C238.619 170.532 239.125 170.195 239.682 169.965C240.239 169.736 240.836 169.617 241.439 169.617Z" fill="#2F2E41"/>
<path d="M248.234 165.839L246.909 165.642C242.889 165.046 242.648 165.01 242.01 164.731C241.684 164.588 241.661 162.434 241.857 150.321C242 141.43 242.179 130.365 241.832 124.425C241.818 124.19 241.725 123.968 241.568 123.793C241.411 123.617 241.199 123.5 240.967 123.459C240.735 123.418 240.495 123.457 240.288 123.568C240.08 123.679 239.916 123.857 239.822 124.072C236.831 130.951 231.813 146.346 228.492 156.533C227.337 160.076 226.425 162.875 225.848 164.553C225.736 164.87 225.51 165.134 225.213 165.294C224.916 165.454 224.57 165.498 224.242 165.418C221.51 164.738 221.692 164.448 217.8 163.446C217.463 163.36 217.173 163.148 216.99 162.854C216.806 162.56 216.744 162.207 216.816 161.869C217.52 158.562 230.403 104.953 231.389 99.8572C231.423 99.6828 231.49 99.5167 231.589 99.3685C231.687 99.2202 231.814 99.0929 231.961 98.9937C232.109 98.8945 232.276 98.8255 232.45 98.7907C232.625 98.7558 232.805 98.7558 232.98 98.7906C235.881 99.3727 237.645 99.9902 240.512 100.587C243.605 101.232 246.803 101.898 249.923 102.52C250.233 102.582 250.511 102.752 250.708 102.999C251.48 103.97 252.624 104.515 253.836 105.092C254.653 105.481 252.802 105.446 253.513 106.007C256.395 108.279 252.251 154.408 249.748 164.827C249.667 165.153 249.468 165.438 249.188 165.625C248.908 165.812 248.568 165.889 248.234 165.839V165.839Z" fill="#2F2E41"/>
<path d="M245.863 113.556C245.773 113.151 245.774 112.731 245.865 112.327C245.956 111.922 246.135 111.542 246.389 111.214C246.644 110.886 246.967 110.617 247.337 110.427C247.707 110.237 248.114 110.129 248.53 110.113L254.889 102.965L258.838 107.716L251.525 113.036C251.507 113.734 251.232 114.401 250.753 114.91C250.274 115.42 249.624 115.737 248.926 115.801C248.228 115.865 247.53 115.672 246.966 115.258C246.401 114.844 246.009 114.238 245.863 113.556V113.556Z" fill="#FFB8B8"/>
<path d="M247.927 62.2295C247.468 60.2885 249.79 56.112 249.33 54.171C249.019 52.8565 245.916 53.7501 245.191 52.6084C244.467 51.4666 243.254 50.5417 241.898 50.5265C240.339 50.5091 238.806 51.6605 237.329 51.1629C235.836 50.6597 235.359 48.6238 236.019 47.1985C236.679 45.7733 238.101 44.865 239.506 44.1534C241.898 42.9415 244.683 42.0565 247.243 42.8583C248.79 43.343 250.084 44.3933 251.337 45.4205C252.478 46.3568 253.639 47.3144 254.437 48.5544C256 50.9835 255.906 54.2565 254.57 56.8167C253.234 59.3768 250.8 61.2556 248.118 62.3461" fill="#2F2E41"/>
<path d="M228.609 107.4C229.458 105.987 230.747 99.3677 232.337 88.2575C233.42 80.6731 234.363 72.9668 234.831 69.0303C234.867 68.7117 234.984 68.4075 235.171 68.1463C235.357 67.8851 235.608 67.6753 235.898 67.5368C236.202 67.3908 236.503 67.2527 236.803 67.1224C240.678 65.4439 244.605 64.8878 248.474 65.4693C252.338 66.0602 255.962 67.7047 258.944 70.2205L258.98 70.2536L258.989 70.3009C259.006 70.3884 260.631 79.1093 257.302 85.0013C254.019 90.8149 253.981 106.211 253.981 106.365V106.563L253.79 106.509C248.683 105.056 228.956 107.598 228.757 107.624L228.45 107.664L228.609 107.4Z" fill="#CCCCCC"/>
<path d="M249.565 108.581L259.597 95.26L254.424 84.2204L254.8 71.1275L259.041 70.3472L259.085 70.3696C261.146 71.5697 262.743 73.4226 263.621 75.6325C264.563 77.9782 266.518 85.9588 267.991 92.2407C268.376 93.8575 268.337 95.5455 267.879 97.1432C267.421 98.7409 266.559 100.195 265.375 101.366L253.069 113.622L249.565 108.581Z" fill="#CCCCCC"/>
<path d="M207.451 82.1814C207.691 81.8425 208.003 81.5601 208.364 81.3541C208.725 81.148 209.128 81.0234 209.542 80.9889C209.957 80.9545 210.375 81.011 210.765 81.1546C211.156 81.2982 211.51 81.5253 211.803 81.8199L221.391 81.6729L220.533 87.7809L211.656 85.9937C211.127 86.4509 210.447 86.6987 209.746 86.6902C209.045 86.6817 208.372 86.4175 207.854 85.9476C207.335 85.4777 207.008 84.8347 206.934 84.1406C206.86 83.4465 207.044 82.7494 207.451 82.1814Z" fill="#FFB8B8"/>
<path d="M212.264 87.5237L213.636 81.5468L230.277 79.9357L234.839 69.0089L234.972 68.6863L236.765 67.1462L236.804 67.1223C240.678 65.444 244.605 64.8879 248.475 65.4692L248.61 65.4897L248.602 65.6262C248.515 67.0245 248.154 68.3924 247.541 69.6532C245.819 73.2092 235.228 88.325 235.121 88.4773L235.074 88.5446L212.264 87.5237Z" fill="#CCCCCC"/>
<path d="M292.042 174.986H177.804C177.724 174.986 177.648 174.955 177.592 174.899C177.536 174.843 177.504 174.767 177.504 174.688C177.504 174.608 177.536 174.532 177.592 174.476C177.648 174.42 177.724 174.389 177.804 174.389H292.042C292.122 174.389 292.198 174.42 292.254 174.476C292.311 174.532 292.342 174.608 292.342 174.688C292.342 174.767 292.311 174.843 292.254 174.899C292.198 174.955 292.122 174.986 292.042 174.986Z" fill="#3F3D56"/>
<path d="M114.538 134.674H0.299838C0.220316 134.674 0.144053 134.642 0.0878227 134.586C0.0315921 134.53 0 134.454 0 134.375C0 134.296 0.0315921 134.22 0.0878227 134.164C0.144053 134.108 0.220316 134.077 0.299838 134.077H114.538C114.618 134.077 114.694 134.108 114.75 134.164C114.806 134.22 114.838 134.296 114.838 134.375C114.838 134.454 114.806 134.53 114.75 134.586C114.694 134.642 114.618 134.674 114.538 134.674Z" fill="#3F3D56"/>
</g>
<defs>
<clipPath id="clip0">
<rect width="295" height="175" fill="white"/>
</clipPath>
</defs>
</svg>
